<?xml version="1.0" standalone="no"?>
<!DOCTYPE svg PUBLIC "-//W3C//DTD SVG 20010904//EN"
 "http://www.w3.org/TR/2001/REC-SVG-20010904/DTD/svg10.dtd">
<svg version="1.0" xmlns="http://www.w3.org/2000/svg"
 width="162.000000pt" height="150.000000pt" viewBox="0 0 162.000000 150.000000"
 preserveAspectRatio="xMidYMid meet">
<metadata>
Created by potrace 1.11, written by Peter Selinger 2001-2013
</metadata>
<g transform="translate(0.000000,150.000000) scale(0.100000,-0.100000)"
fill="#000000" stroke="none">
<path d="M683 1384 c-136 -28 -265 -129 -338 -263 l-40 -74 -134 -52 -134 -52
119 -82 c96 -66 119 -86 121 -109 21 -163 143 -424 245 -524 64 -63 192 -113
310 -122 57 -4 202 33 284 73 151 75 352 238 421 343 38 56 28 67 -57 66 -56
-1 -76 3 -97 19 -58 43 -70 74 -74 191 -9 268 -154 503 -355 573 -69 24 -191
30 -271 13z m247 -49 c24 -8 62 -26 85 -40 142 -84 246 -291 254 -505 4 -92 7
-113 24 -146 33 -63 90 -97 159 -95 26 0 48 -2 48 -5 0 -3 -15 -23 -32 -46
-68 -84 -265 -232 -383 -288 -175 -82 -362 -74 -502 22 -71 48 -154 182 -212
338 -25 69 -62 212 -56 218 6 7 -12 22 -104 86 l-84 59 97 38 c53 20 103 42
110 48 7 6 28 41 47 78 64 126 193 227 324 251 68 13 170 7 225 -13z"/>
</g>
</svg>
